# xmcd
#
# Track frame offsets:
# 150
# 20586
# 36975
# 52095
# 68167
# 89364
# 113296
# 136982
# 153083
# 172327
# 203527
# 213898
# 237665
# 252593
# 269918
#
# Disc length: 3914 seconds
#
# Revision: 1
# Processed by: cddbd v1.5.2PL0 Copyright (c) Steve Scherf et al.
# Submitted via: inCDius 2.0b9
#
DISCID=dd0f480f
DTITLE=Blue Ridge Irish Music School - Virginia Reel
DYEAR=1900
DGENRE=
TTITLE0=Noisy Curlew:Musical Preist:Crock Of Gold (Vincent Broderick)
TTITLE1=Sean Ryan's:The Street Player (Ed Reavy)
TTITLE2=Sporting Moll:West Clare Railway (Junior Crehan)
TTITLE3=John Walsh's #1:Johnny O'Leary's:Lakes Of Sligo
TTITLE4=Aggie White's:Down The Broom
TTITLE5='Reilly's Grave (air):The Other Cliffs Of Moher:Geese In The Bog
TTITLE6="Westlin Winds" (Robert Burns)
TTITLE7=In Continental Mood (Andy Cutting):Silly Wizard waltz:Mulhaire's Reel
TTITLE8=Donegal Highland:The Merry Sisters:Frank's Reel (John McCusker)
TTITLE9=Banks Of Sullane (air):Return To Camden Town (Bobby Casey):Limerick La
TTITLE9=sses
TTITLE10=Golden Castle Hornpipe (Junior Crehan)
TTITLE11=Road To Ballymac:Bunker Hill:Sligo Creek (Danny Noveck)
TTITLE12=Jimmy Lyons' Highlands:The Windmill (Fintan MacManus)
TTITLE13="She Moved Through The Fair" (Padraic Colum)
TTITLE14=Trip To Kilkenny (John McCusker):The Cos Reel:Up and Around The Bend (B
TTITLE14=ela Fleck)
EXTD=
EXTT0=
EXTT1=
EXTT2=
EXTT3=
EXTT4=
EXTT5=
EXTT6=
EXTT7=
EXTT8=
EXTT9=
EXTT10=
EXTT11=
EXTT12=
EXTT13=
EXTT14=
PLAYORDER=
